PathFileType	4	(X/Y/Z)	/Users/itak/Documents/Research/Walk-IL/dataset/trc/00520_00183.trc
DataRate	CameraRate	NumFrames	NumMarkers	Units	OrigDataRate	OrigDataStartFrame	OrigNumFrames
100.000000	100.000000	4	53	mm	100.000000	59	472
Frame#	Time	RPSI			LPSI			L3			STRN			T10			C7			CLAV			RBAK			LBAK			LSHO			LUPA			LAEL			LAOL			LWTS			LWPS			LFRA			LIFD			LHPS			LHTS			RSHO			RUPA			RAEL			RAOL			RWTS			RWPS			RFRA			RIFD			RHTS			RHPS			RBHD			LFHD			RFHD			LBHD			LHIP			RHIP			RASI			LASI			LKNE			LTHI			LANK			LTIP			LTOE			LMT1			LMT5			LHEE			RKNE			RTHI			RANK			RTIP			RTOE			RMT1			RMT5			RHEE			
		X1	Y1	Z1	X2	Y2	Z2	X3	Y3	Z3	X4	Y4	Z4	X5	Y5	Z5	X6	Y6	Z6	X7	Y7	Z7	X8	Y8	Z8	X9	Y9	Z9	X10	Y10	Z10	X11	Y11	Z11	X12	Y12	Z12	X13	Y13	Z13	X14	Y14	Z14	X15	Y15	Z15	X16	Y16	Z16	X17	Y17	Z17	X18	Y18	Z18	X19	Y19	Z19	X20	Y20	Z20	X21	Y21	Z21	X22	Y22	Z22	X23	Y23	Z23	X24	Y24	Z24	X25	Y25	Z25	X26	Y26	Z26	X27	Y27	Z27	X28	Y28	Z28	X29	Y29	Z29	X30	Y30	Z30	X31	Y31	Z31	X32	Y32	Z32	X33	Y33	Z33	X34	Y34	Z34	X35	Y35	Z35	X36	Y36	Z36	X37	Y37	Z37	X38	Y38	Z38	X39	Y39	Z39	X40	Y40	Z40	X41	Y41	Z41	X42	Y42	Z42	X43	Y43	Z43	X44	Y44	Z44	X45	Y45	Z45	X46	Y46	Z46	X47	Y47	Z47	X48	Y48	Z48	X49	Y49	Z49	X50	Y50	Z50	X51	Y51	Z51	X52	Y52	Z52	X53	Y53	Z53	

60	0.59	-1160.675415039062	968.7687377929688	-415.2425231933594	-1135.1640625	968.5770874023438	-536.080078125	-1161.936645507812	1029.377563476562	-480.2116394042969	-940.8892211914062	1202.681640625	-454.8279113769531	-1176.773071289062	1136.015747070312	-478.1142578125	-1132.627563476562	1366.165649414062	-472.5946350097656	-977.9303588867188	1297.444702148438	-460.0909423828125	-1186.258666992188	1244.221069335938	-390.0875854492188	-1149.1240234375	1309.7802734375	-560.2183837890625	-1052.008544921875	1361.355224609375	-625.8975830078125	-1063.730102539062	1235.733032226562	-686.1372680664062	-1058.570678710938	1027.270263671875	-716.0245361328125	-1125.277221679688	1017.502990722656	-641.3692016601562	-962.3992919921875	842.9813232421875	-689.6922607421875	-1044.5498046875	804.253173828125	-720.280517578125	-1040.57958984375	943.0355224609375	-721.66259765625	-955.8240966796875	684.4231567382812	-685.8245849609375	-1017.44873046875	752.3169555664062	-720.0516967773438	-953.6197509765625	765.6204223632812	-710.4178466796875	-1093.68359375	1365.730590820312	-320.8621520996094	-1115.962768554688	1298.894897460938	-265.2306213378906	-1120.021850585938	1033.269409179688	-217.8481597900391	-1160.849853515625	1013.119018554688	-265.8488159179688	-1005.500183105469	836.8096313476562	-215.4978179931641	-1088.908569335938	808.8679809570312	-188.5727691650391	-1117.611938476562	978.9285278320312	-208.7640991210938	-1000.663757324219	676.7544555664062	-201.8868713378906	-995.0282592773438	745.7321166992188	-184.4207916259766	-1064.61279296875	740.709228515625	-180.5601501464844	-1110.074829101562	1524.1533203125	-391.8815307617188	-958.6690673828125	1588.389770507812	-506.5116271972656	-985.861572265625	1582.930908203125	-382.5068359375	-1089.840942382812	1526.136596679688	-550.3036499023438	-1006.380859375	893.6490478515625	-646.784423828125	-1080.355712890625	868.3757934570312	-274.3347778320312	-970.1958618164062	911.7103271484375	-320.6534423828125	-929.0109252929688	924.70458984375	-559.8646240234375	-1034.114624023438	472.87109375	-612.0650024414062	-1003.592712402344	628.0337524414062	-628.3256225585938	-1132.763305664062	47.15774154663086	-600.5081787109375	-1073.198486328125	330.2890319824219	-618.93994140625	-938.2866821289062	38.91653442382812	-529.3749389648438	-1015.93994140625	44.94870758056641	-501.1187133789062	-1022.025024414062	42.88422393798828	-603.4589233398438	-1183.253051757812	43.83924865722656	-540.74951171875	-1090.997924804688	482.1623229980469	-292.7001342773438	-1059.745849609375	741.590576171875	-264.0653991699219	-1143.177001953125	48.72752380371094	-326.0188598632812	-1092.738037109375	340.7653198242188	-306.8891296386719	-940.4337158203125	43.92509841918945	-360.9232788085938	-1004.565673828125	49.95771026611328	-399.2978210449219	-1030.16162109375	45.04836273193359	-306.6583862304688	-1193.002563476562	39.97327041625977	-376.4930725097656	
61	0.6	-1160.617919921875	968.7948608398438	-415.3147583007812	-1135.098388671875	968.604248046875	-536.2010498046875	-1161.903198242188	1029.413452148438	-480.2358703613281	-940.6608276367188	1202.647094726562	-454.8945922851562	-1176.626953125	1136.064453125	-478.2196350097656	-1132.414428710938	1366.201293945312	-472.7342529296875	-977.7222290039062	1297.434936523438	-460.2168579101562	-1186.118530273438	1244.284790039062	-390.2215270996094	-1148.92724609375	1309.82470703125	-560.3590698242188	-1051.777954101562	1361.334594726562	-626.029296875	-1063.530517578125	1235.725341796875	-686.2455444335938	-1058.359985351562	1027.239868164062	-716.0872192382812	-1125.117553710938	1017.518249511719	-641.4144287109375	-962.2442626953125	842.9564208984375	-689.62451171875	-1044.449096679688	804.2274780273438	-720.2393188476562	-1040.338134765625	942.9718627929688	-721.6741333007812	-955.41796875	684.4754638671875	-685.5026245117188	-1017.265197753906	752.222412109375	-719.989013671875	-953.5319213867188	765.5485229492188	-710.3590087890625	-1093.516357421875	1365.760375976562	-320.9766235351562	-1115.781127929688	1298.931396484375	-265.3696899414062	-1119.921752929688	1033.323120117188	-217.9496307373047	-1160.759033203125	1013.176086425781	-265.9523315429688	-1005.481323242188	836.8136596679688	-215.5791931152344	-1088.887084960938	808.9210815429688	-188.6632537841797	-1117.52978515625	978.9816284179688	-208.8664398193359	-1000.683654785156	676.747802734375	-201.9629364013672	-995.0218505859375	745.7435302734375	-184.5297241210938	-1064.60498046875	740.7427368164062	-180.6411285400391	-1109.829345703125	1524.1748046875	-392.026123046875	-958.261962890625	1588.371337890625	-506.5677185058594	-985.5838012695312	1582.882568359375	-382.6140441894531	-1089.525024414062	1526.135498046875	-550.4556884765625	-1006.276489257812	893.6469116210938	-646.896240234375	-1080.3046875	868.39990234375	-274.4578857421875	-970.1115112304688	911.6963500976562	-320.8019409179688	-928.9840087890625	924.6451416015625	-559.95947265625	-1034.08544921875	472.8606262207031	-612.0888061523438	-1003.564086914062	628.0067138671875	-628.3695678710938	-1132.754516601562	47.15895462036133	-600.5028076171875	-1073.17041015625	330.2882995605469	-618.96044921875	-938.2852172851562	38.91757583618164	-529.3743896484375	-1015.95947265625	44.94164657592773	-501.1168212890625	-1022.022155761719	42.89204025268555	-603.4491577148438	-1183.253540039062	43.83800506591797	-540.7376098632812	-1090.965698242188	482.1688537597656	-292.67431640625	-1059.7138671875	741.5948486328125	-264.1319885253906	-1143.19482421875	48.7059326171875	-325.9806213378906	-1092.655395507812	340.7484741210938	-306.8826293945312	-940.43896484375	43.95052337646484	-360.8809204101562	-1004.544921875	50.00540924072266	-399.2750549316406	-1030.166748046875	45.04364013671875	-306.6479187011719	-1193.015380859375	39.94911575317383	-376.4692687988281	
62	0.61	-1160.542114257812	968.8229370117188	-415.4022521972656	-1135.010864257812	968.6427612304688	-536.33935546875	-1161.855590820312	1029.45068359375	-480.2633666992188	-940.4393920898438	1202.6025390625	-454.9601135253906	-1176.462890625	1136.1123046875	-478.3387451171875	-1132.189086914062	1366.234375	-472.8834533691406	-977.5171508789062	1297.429931640625	-460.3246459960938	-1185.954956054688	1244.347045898438	-390.3744812011719	-1148.715209960938	1309.867797851562	-560.5049438476562	-1051.534790039062	1361.306518554688	-626.1778564453125	-1063.330810546875	1235.7109375	-686.3469848632812	-1058.151611328125	1027.207275390625	-716.1651611328125	-1124.939453125	1017.534912109375	-641.4781494140625	-962.0850219726562	842.93359375	-689.5587768554688	-1044.326782226562	804.19482421875	-720.2037353515625	-1040.096435546875	942.9151000976562	-721.6980590820312	-954.8626708984375	684.5978393554688	-685.1057739257812	-1017.051391601562	752.1157836914062	-719.9403686523438	-953.436767578125	765.4710083007812	-710.3162841796875	-1093.330932617188	1365.788696289062	-321.0935363769531	-1115.586059570312	1298.967895507812	-265.5187377929688	-1119.821411132812	1033.375366210938	-218.0625305175781	-1160.664306640625	1013.236633300781	-266.0708312988281	-1005.469848632812	836.8126831054688	-215.6731414794922	-1088.871948242188	808.9683837890625	-188.7745819091797	-1117.450561523438	979.0330200195312	-208.9811859130859	-1000.718017578125	676.7323608398438	-202.0635681152344	-995.0277099609375	745.7423706054688	-184.6634216308594	-1064.614990234375	740.7703857421875	-180.7333831787109	-1109.564697265625	1524.198974609375	-392.1775207519531	-957.8285522460938	1588.357055664062	-506.6422729492188	-985.2858276367188	1582.83642578125	-382.7159423828125	-1089.189819335938	1526.147094726562	-550.626953125	-1006.181030273438	893.6403198242188	-647.01953125	-1080.2880859375	868.4345092773438	-274.5839538574219	-970.0264892578125	911.6781005859375	-320.9385681152344	-928.9345703125	924.5781860351562	-560.0674438476562	-1034.051147460938	472.84765625	-612.1165161132812	-1003.529663085938	627.9815673828125	-628.4225463867188	-1132.744750976562	47.16316223144531	-600.499267578125	-1073.1376953125	330.2864074707031	-618.98291015625	-938.2835083007812	38.91941452026367	-529.3742065429688	-1015.966125488281	44.93844223022461	-501.1116638183594	-1022.021362304688	42.89778518676758	-603.43994140625	-1183.25537109375	43.83924865722656	-540.7291259765625	-1090.934448242188	482.1721801757812	-292.6498718261719	-1059.67236328125	741.5908813476562	-264.2171020507812	-1143.222534179688	48.68256759643555	-325.9312438964844	-1092.571044921875	340.7299499511719	-306.86083984375	-940.4437255859375	43.98358535766602	-360.8291015625	-1004.540161132812	50.05965423583984	-399.2446899414062	-1030.174194335938	45.03900527954102	-306.6313171386719	-1193.031005859375	39.92168807983398	-376.4390258789062	
63	0.62	-1160.442504882812	968.8554077148438	-415.5121154785156	-1134.900634765625	968.693115234375	-536.4945068359375	-1161.790161132812	1029.49072265625	-480.2988891601562	-940.2190551757812	1202.553100585938	-455.0257568359375	-1176.281494140625	1136.160278320312	-478.4736328125	-1131.9501953125	1366.265380859375	-473.0428161621094	-977.3101196289062	1297.4287109375	-460.4171142578125	-1185.766235351562	1244.408081054688	-390.5467529296875	-1148.486572265625	1309.910400390625	-560.6553955078125	-1051.279052734375	1361.276000976562	-626.3436279296875	-1063.1259765625	1235.688720703125	-686.4464111328125	-1057.945068359375	1027.174438476562	-716.2568969726562	-1124.742065429688	1017.551391601562	-641.565185546875	-961.9228515625	842.9136962890625	-689.4957885742188	-1044.17333984375	804.1524047851562	-720.1749877929688	-1039.859252929688	942.8659057617188	-721.7362670898438	-954.2113037109375	684.7603149414062	-684.67431640625	-1016.803527832031	752	-719.9027709960938	-953.3264770507812	765.3888549804688	-710.2904052734375	-1093.12109375	1365.817626953125	-321.2173461914062	-1115.376098632812	1299.005981445312	-265.6776428222656	-1119.719604492188	1033.427368164062	-218.1866760253906	-1160.565673828125	1013.302673339844	-266.2024841308594	-1005.46533203125	836.8079833984375	-215.7802429199219	-1088.863891601562	809.0106811523438	-188.9054412841797	-1117.3740234375	979.0849609375	-209.1053924560547	-1000.769470214844	676.7107543945312	-202.1879425048828	-995.0458374023438	745.7297973632812	-184.8187408447266	-1064.643188476562	740.7919311523438	-180.8376770019531	-1109.279174804688	1524.225708007812	-392.3380432128906	-957.3801879882812	1588.344116210938	-506.73681640625	-984.971435546875	1582.793701171875	-382.8138122558594	-1088.839477539062	1526.1728515625	-550.8138427734375	-1006.104064941406	893.6300659179688	-647.152587890625	-1080.303955078125	868.4794311523438	-274.7134094238281	-969.9418334960938	911.6561889648438	-321.0631713867188	-928.860595703125	924.5072631835938	-560.189208984375	-1034.010498046875	472.8300476074219	-612.148681640625	-1003.48583984375	627.9572143554688	-628.4876708984375	-1132.735107421875	47.16931533813477	-600.4976196289062	-1073.09765625	330.2821350097656	-619.0070190429688	-938.2822265625	38.92214965820312	-529.375	-1015.96337890625	44.9381103515625	-501.1050415039062	-1022.0244140625	42.90071105957031	-603.4329833984375	-1183.257568359375	43.84255218505859	-540.725830078125	-1090.89599609375	482.1715393066406	-292.6316223144531	-1059.61962890625	741.578857421875	-264.3287353515625	-1143.261840820312	48.6579475402832	-325.870849609375	-1092.485717773438	340.7102661132812	-306.8288879394531	-940.449951171875	44.02785491943359	-360.7671508789062	-1004.556030273438	50.12340927124023	-399.2037963867188	-1030.183715820312	45.03498077392578	-306.6093139648438	-1193.050659179688	39.89113235473633	-376.4006042480469	
